<?xml version="1.0" standalone="no"?>
<!DOCTYPE svg PUBLIC "-//W3C//DTD SVG 1.1//EN" "http://www.w3.org/Graphics/SVG/1.1/DTD/svg11.dtd" >
<svg xmlns="http://www.w3.org/2000/svg">
<metadata>Generated by IcoMoon</metadata>
<defs>
<font id="icomoon" horiz-adv-x="1024">
<font-face units-per-em="1024" ascent="960" descent="-64" />
<missing-glyph horiz-adv-x="1024" />
<glyph unicode="&#x20;" horiz-adv-x="512" d="" />
<glyph unicode="&#xe900;" glyph-name="long-arrow-right" horiz-adv-x="2176" d="M2123.758 494.627c25.751-25.751 25.751-67.504 0-93.255l-419.654-419.651c-25.751-25.753-67.504-25.753-93.255 0-25.753 25.751-25.753 67.504 0 93.255l373.023 373.024-373.023 373.024c-25.753 25.751-25.753 67.504 0 93.255 25.751 25.752 67.504 25.752 93.255 0l419.654-419.654zM-33.013 513.942h2110.146v-131.884h-2110.146v131.884z" />
<glyph unicode="&#xe901;" glyph-name="long-arrow-left" horiz-adv-x="2176" d="M52.242 494.627c-25.751-25.751-25.751-67.504 0-93.255l419.654-419.651c25.751-25.753 67.504-25.753 93.255 0 25.753 25.751 25.753 67.504 0 93.255l-373.023 373.024 373.023 373.024c25.753 25.751 25.753 67.504 0 93.255-25.751 25.752-67.504 25.752-93.255 0l-419.654-419.654zM2209.013 513.942h-2110.146v-131.884h2110.146v131.884z" />
<glyph unicode="&#xe902;" glyph-name="circle-check" d="M512 960c-282.784 0-512-229.216-512-512 0-282.786 229.216-512 512-512 282.752 0 512 229.248 512 512 0 282.784-229.248 512-512 512zM512 0c-247.423 0-447.999 200.576-447.999 448s200.576 447.999 447.999 447.999c247.424 0 448-200.576 448-447.999s-200.576-448-448-448zM745.634 627.431l-329.216-326.273-136.992 134.272c-12.608 12.514-33.087 12.514-45.695 0-12.64-12.51-12.64-32.768 0-45.248l159.966-156.766c13.119-11.554 32.736-12.834 45.693 0l351.97 348.766c12.608 12.48 12.608 32.768 0 45.248-12.638 12.48-33.084 12.48-45.726 0z" />
<glyph unicode="&#xe903;" glyph-name="circle-close" d="M512 960c-282.784 0-512-229.216-512-512 0-282.752 229.216-512 512-512 282.752 0 512 229.214 512 512 0 282.784-229.248 512-512 512zM512 0c-247.423 0-447.999 200.576-447.999 448s200.576 447.999 447.999 447.999c247.424 0 448-200.576 448-447.999s-200.576-448-448-448zM727.3 279.33l-168.58 168.606 167.62 166.24c12.638 12.512 12.638 32.768 0 45.248-12.608 12.48-33.088 12.48-45.696 0l-167.394-166.014-169.888 169.919c-12.608 12.672-33.087 12.672-45.695 0-12.608-12.64-12.608-33.183 0-45.823l169.632-169.664-170.592-169.182c-12.608-12.514-12.608-32.768 0-45.252 12.608-12.51 33.087-12.51 45.727 0l170.369 168.96 168.832-168.832c12.608-12.672 33.088-12.672 45.696 0 12.578 12.608 12.578 33.122-0.030 45.794z" />
<glyph unicode="&#xe904;" glyph-name="circle-info" d="M512 960c-282.98 0-512-228.994-512-512 0-282.978 228.994-512 512-512 282.978 0 512 228.992 512 512 0 282.98-228.992 512-512 512zM512 4.267c-244.674 0-443.734 199.057-443.734 443.733s199.060 443.734 443.734 443.734c244.672 0 443.733-199.060 443.733-443.734 0-244.672-199.061-443.733-443.733-443.733zM511.966 540.458c-18.85 0-34.133-15.283-34.133-34.133v-287.94c0-18.85 15.283-34.133 34.133-34.133 18.854 0 34.133 15.283 34.133 34.133v287.94c0 18.854-15.283 34.133-34.133 34.133zM512 661.333c-23.526 0-42.667-19.14-42.667-42.667s19.14-42.667 42.667-42.667c23.526 0 42.667 19.14 42.667 42.667s-19.14 42.667-42.667 42.667z" />
<glyph unicode="&#xe905;" glyph-name="warning" horiz-adv-x="1117" d="M1106.739 68.445l-482.090 835.009c-29.384 50.9-102.814 50.919-132.212 0l-482.091-835.009c-29.378-50.879 7.294-114.497 66.105-114.497h964.184c58.754 0 95.511 63.567 66.104 114.497zM1040.635 19.377h-964.184c-8.387 0-13.673 9.030-9.443 16.356l482.093 835.007c4.194 7.265 14.657 7.326 18.888 0l482.090-835.007c4.203-7.28-1.001-16.356-9.444-16.356zM579.845 113.469c18.6 11.492 24.357 35.887 12.861 54.486-11.492 18.595-35.887 24.353-54.486 12.861-18.6-11.497-24.357-35.891-12.861-54.491 11.497-18.595 35.891-24.353 54.486-12.856zM559.076 244.275c18.069 0 32.717 14.648 32.717 32.712v373.935c0 18.068-14.648 32.714-32.717 32.714-18.064 0-32.712-14.646-32.712-32.714v-373.935c0-18.064 14.648-32.712 32.712-32.712z" />
<glyph unicode="&#xe906;" glyph-name="insert-card" d="M155.462 804.567c-3.634 0.051-7.244-0.621-10.615-1.975s-6.444-3.367-9.031-5.92c-2.588-2.551-4.643-5.594-6.047-8.946s-2.125-6.951-2.125-10.588c0-3.635 0.722-7.234 2.125-10.587s3.459-6.396 6.047-8.946c2.589-2.551 5.659-4.564 9.031-5.92s6.981-2.027 10.615-1.975h713.145c3.628-0.051 7.242 0.621 10.612 1.975s6.444 3.367 9.034 5.92c2.59 2.551 4.644 5.594 6.042 8.946 1.405 3.354 2.128 6.951 2.128 10.587s-0.724 7.234-2.128 10.588c-1.396 3.354-3.453 6.395-6.042 8.946s-5.662 4.564-9.034 5.92c-3.372 1.356-6.986 2.028-10.612 1.975h-713.145zM100.573 923.427c-45.111 0-82.286-37.173-82.286-82.286v-128c0-45.111 37.173-82.286 82.286-82.286 3.634-0.051 7.244 0.621 10.615 1.975s6.443 3.367 9.030 5.92c2.589 2.551 4.643 5.594 6.047 8.946s2.126 6.951 2.126 10.587c0 3.635-0.722 7.234-2.126 10.587s-3.458 6.396-6.047 8.946c-2.589 2.551-5.659 4.564-9.030 5.92s-6.981 2.027-10.615 1.975c-15.669 0-27.428 11.759-27.428 27.428v128c0 15.669 11.759 27.428 27.428 27.428h822.855c15.667 0 27.428-11.759 27.428-27.428v-128c0-15.669-11.761-27.428-27.428-27.428-3.635 0.051-7.242-0.621-10.612-1.975-3.379-1.356-6.444-3.367-9.034-5.92s-4.644-5.594-6.049-8.946c-1.405-3.354-2.122-6.951-2.122-10.587s0.717-7.234 2.122-10.587c1.405-3.354 3.459-6.396 6.049-8.946s5.653-4.564 9.034-5.92c3.372-1.356 6.978-2.027 10.612-1.975 45.115 0 82.286 37.173 82.286 82.286v128c0 45.111-37.171 82.286-82.286 82.286h-822.855zM209.861 713.531c-15.135-0.237-27.217-12.687-26.999-27.822v-448.002c0-45.107 37.173-82.286 82.286-82.286h493.71c45.115 0 82.286 37.179 82.286 82.286v448.002c0.527 37.092-55.376 37.092-54.857 0v-448.002c0-15.667-11.755-27.428-27.428-27.428h-493.71c-15.669 0-27.428 11.761-27.428 27.428v448.002c0.222 15.471-12.386 28.064-27.857 27.822zM512.817-100.57c7.137 0.11 13.953 2.992 18.999 8.038l90.5 90.499c25.882 25.856-12.906 64.679-38.785 38.823l-43.679-43.717v98.179c0.525 37.090-55.382 37.090-54.857 0v-98.179l-43.679 43.717c-25.852 26.924-65.712-12.94-38.786-38.787l90.5-90.535c5.238-5.245 12.375-8.141 19.787-8.038zM384 521.142c-50.177 0-91.428-41.251-91.428-91.429v-73.142c0-50.177 41.251-91.427 91.428-91.427s91.428 41.25 91.428 91.427v73.142c0 50.177-41.251 91.429-91.428 91.429zM384 466.286c20.735 0 36.572-15.837 36.572-36.573v-73.142c0-20.735-15.837-36.572-36.572-36.572s-36.572 15.837-36.572 36.572v73.142c0 20.735 15.837 36.573 36.572 36.573z" />
<glyph unicode="&#xe907;" glyph-name="note-board" d="M877.722 557.714c9.699 0 19.003 3.853 25.863 10.712s10.708 16.16 10.708 25.86v142.994c0.395 29.521-10.935 57.994-31.503 79.176s-48.691 33.348-78.212 33.829h-36.569v36.571c0 19.399-7.706 38.003-21.423 51.72s-32.321 21.423-51.72 21.423h-365.714c-19.398 0-38.003-7.706-51.719-21.423s-21.424-32.321-21.424-51.72v-36.571h-36.571c-29.52-0.481-57.645-12.646-78.21-33.829s-31.895-49.655-31.504-79.176v-688.275c-0.391-29.52 10.938-57.995 31.504-79.177s48.691-33.346 78.21-33.829h585.142c29.52 0.483 57.644 12.646 78.212 33.829s31.898 49.657 31.503 79.177v435.567c0 9.699-3.847 19.002-10.708 25.86s-16.165 10.712-25.863 10.712c-9.699 0-19.003-3.853-25.856-10.712-6.861-6.858-10.715-16.16-10.715-25.86v-435.567c0.402-10.123-3.218-19.997-10.072-27.465s-16.377-11.922-26.5-12.398h-585.142c-10.122 0.475-19.646 4.93-26.497 12.398s-10.472 17.342-10.075 27.465v688.275c-0.397 10.126 3.224 19.997 10.075 27.464s16.374 11.924 26.497 12.398h36.571c0-19.399 7.706-38.003 21.424-51.72s32.321-21.423 51.719-21.423h365.714c19.399 0 38.003 7.706 51.72 21.423s21.423 32.321 21.423 51.72h36.569c10.123-0.475 19.646-4.931 26.5-12.398s10.474-17.339 10.072-27.464v-142.994c0-9.699 3.855-19.002 10.715-25.86 6.853-6.859 16.157-10.712 25.856-10.712zM329.152 777.143v109.714h365.714v-109.714h-365.714zM768.010 448c0-9.699-3.852-19.002-10.711-25.86s-16.161-10.712-25.86-10.712h-438.858c-9.699 0-19.001 3.853-25.86 10.712s-10.712 16.16-10.712 25.86c0 9.699 3.853 19.002 10.712 25.86s16.161 10.712 25.86 10.712h438.858c9.699 0 19.002-3.853 25.86-10.712s10.711-16.16 10.711-25.86zM256.010 594.286c0 9.699 3.853 19.002 10.712 25.86s16.161 10.712 25.86 10.712h219.429c9.699 0 19.002-3.853 25.86-10.712s10.711-16.16 10.711-25.86c0-9.699-3.852-19.002-10.711-25.86s-16.161-10.712-25.86-10.712h-219.429c-9.699 0-19.001 3.853-25.86 10.712s-10.712 16.16-10.712 25.86zM768.010 301.714c0-9.699-3.852-19.002-10.711-25.86s-16.161-10.712-25.86-10.712h-438.858c-9.699 0-19.001 3.853-25.86 10.712s-10.712 16.16-10.712 25.86c0 9.699 3.853 19.002 10.712 25.86s16.161 10.712 25.86 10.712h438.858c9.699 0 19.002-3.853 25.86-10.712s10.711-16.16 10.711-25.86zM768.010 155.429c0-9.699-3.852-19.003-10.711-25.863-6.859-6.853-16.161-10.708-25.86-10.708h-438.858c-9.699 0-19.001 3.855-25.86 10.708-6.859 6.861-10.712 16.165-10.712 25.863s3.853 19.003 10.712 25.863c6.859 6.853 16.161 10.708 25.86 10.708h438.858c9.699 0 19.002-3.855 25.86-10.708 6.859-6.861 10.711-16.165 10.711-25.863z" />
<glyph unicode="&#xe908;" glyph-name="wallet" d="M987.429 667.429h-36.571v73.143c0 29.098-11.557 57.005-32.132 77.58s-48.486 32.135-77.583 32.135h-731.429c-29.098 0-57.004-11.559-77.58-32.135s-32.135-48.482-32.135-77.58v-585.143c0-29.096 11.559-57.008 32.135-77.583s48.482-32.132 77.58-32.132h731.429c29.096 0 57.008 11.557 77.583 32.132s32.132 48.486 32.132 77.583v73.143h36.571c9.699 0 19.003 3.853 25.863 10.712 6.853 6.858 10.708 16.16 10.708 25.86v365.714c0 9.699-3.855 19.002-10.708 25.86-6.861 6.859-16.165 10.712-25.863 10.712zM950.857 301.714h-329.143c-9.699 0-19.002 3.853-25.86 10.712s-10.712 16.16-10.712 25.86v219.429c0 9.699 3.853 19.002 10.712 25.86s16.16 10.712 25.86 10.712h182.857c9.699 0 19.003 3.853 25.863 10.712 6.853 6.858 10.708 16.16 10.708 25.86s-3.855 19.002-10.708 25.86c-6.861 6.859-16.165 10.712-25.863 10.712h-182.857c-29.098 0-57.005-11.559-77.58-32.135s-32.135-48.482-32.135-77.58v-219.429c0-29.098 11.559-57.005 32.135-77.58s48.482-32.135 77.58-32.135h256v-73.143c0-9.699-3.855-19.003-10.708-25.863-6.861-6.853-16.165-10.708-25.863-10.708h-731.429c-9.699 0-19.002 3.855-25.86 10.708-6.859 6.861-10.712 16.165-10.712 25.863v585.143c0 9.699 3.853 19.002 10.712 25.86s16.16 10.712 25.86 10.712h731.429c9.699 0 19.003-3.853 25.863-10.712 6.853-6.858 10.708-16.16 10.708-25.86v-109.714c0-9.699 3.855-19.002 10.708-25.86 6.861-6.859 16.165-10.712 25.863-10.712h36.571v-292.571zM731.429 557.714c-21.699 0-42.911-6.434-60.954-18.491s-32.105-29.191-40.409-49.238c-8.304-20.048-10.477-42.108-6.243-63.391s14.683-40.831 30.027-56.175c15.344-15.344 34.893-25.793 56.175-30.027s43.34-2.060 63.389 6.243c20.048 8.304 37.186 22.366 49.24 40.409s18.491 39.254 18.491 60.954c0 29.098-11.557 57.005-32.132 77.58s-48.486 32.135-77.583 32.135zM731.429 411.429c-7.233 0-14.304 2.145-20.318 6.163s-10.702 9.731-13.469 16.413c-2.768 6.682-3.493 14.035-2.081 21.13s4.894 13.61 10.009 18.725c5.114 5.115 11.63 8.598 18.725 10.009s14.449 0.687 21.127-2.081c6.685-2.768 12.398-7.455 16.413-13.469 4.023-6.015 6.166-13.085 6.166-20.318 0-9.699-3.855-19.002-10.708-25.86-6.861-6.859-16.165-10.712-25.863-10.712z" />
<glyph unicode="&#xe909;" glyph-name="layout" d="M329.143 521.143h-292.571c-9.699 0-19.001-3.853-25.86-10.712s-10.712-16.16-10.712-25.86v-438.857c0-29.096 11.559-57.008 32.135-77.583s48.482-32.132 77.58-32.132h219.429c9.699 0 19.002 3.855 25.86 10.708 6.859 6.861 10.712 16.165 10.712 25.863v512c0 9.699-3.853 19.002-10.712 25.86s-16.16 10.712-25.86 10.712zM292.571 9.143h-182.857c-9.699 0-19.002 3.855-25.86 10.708-6.859 6.861-10.712 16.165-10.712 25.863v402.286h219.429v-438.857zM1024 850.286v-219.429c0-9.699-3.855-19.002-10.708-25.86-6.861-6.859-16.165-10.712-25.863-10.712h-950.857c-9.699 0-19.001 3.853-25.86 10.712s-10.712 16.16-10.712 25.86v219.429c0 29.098 11.559 57.004 32.135 77.58s48.482 32.135 77.58 32.135h475.429c9.699 0 19.002-3.853 25.86-10.712s10.712-16.161 10.712-25.86c0-9.699-3.853-19.001-10.712-25.86s-16.16-10.712-25.86-10.712h-475.429c-9.699 0-19.002-3.853-25.86-10.712s-10.712-16.16-10.712-25.86v-182.857h877.714v182.857c0 9.699-3.855 19.002-10.708 25.86-6.861 6.859-16.165 10.712-25.863 10.712h-182.857c-9.699 0-19.002 3.853-25.86 10.712s-10.712 16.161-10.712 25.86c0 9.699 3.853 19.001 10.712 25.86s16.16 10.712 25.86 10.712h182.857c29.096 0 57.008-11.559 77.583-32.135s32.132-48.482 32.132-77.58zM1024 484.571v-146.286c0-9.699-3.855-19.002-10.708-25.86-6.861-6.859-16.165-10.712-25.863-10.712s-19.003 3.853-25.863 10.712c-6.853 6.858-10.708 16.16-10.708 25.86v109.714h-438.857v-438.857h402.286c9.699 0 19.003 3.855 25.863 10.708 6.853 6.861 10.708 16.165 10.708 25.863v146.286c0 9.699 3.855 19.003 10.708 25.863 6.861 6.853 16.165 10.708 25.863 10.708s19.003-3.855 25.863-10.708c6.853-6.861 10.708-16.165 10.708-25.863v-146.286c0-29.096-11.557-57.008-32.132-77.583s-48.486-32.132-77.583-32.132h-438.857c-9.699 0-19.002 3.855-25.86 10.708-6.859 6.861-10.712 16.165-10.712 25.863v512c0 9.699 3.853 19.002 10.712 25.86s16.16 10.712 25.86 10.712h512c9.699 0 19.003-3.853 25.863-10.712 6.853-6.858 10.708-16.16 10.708-25.86z" />
<glyph unicode="&#xe90a;" glyph-name="settings" d="M511.988 243.194c-40.506 0-80.102 12.013-113.781 34.515-33.679 22.509-59.929 54.492-75.43 91.914s-19.556 78.601-11.654 118.328c7.903 39.727 27.408 76.219 56.049 104.861s65.134 48.147 104.861 56.049c39.727 7.903 80.906 3.846 118.328-11.654s69.409-41.75 91.911-75.43c22.502-33.679 34.515-73.275 34.515-113.78-0.083-54.291-21.69-106.333-60.077-144.72-38.39-38.394-90.433-59.994-144.723-60.083zM511.988 584.637c-27.025 0-53.443-8.014-75.914-23.028s-39.983-36.355-50.326-61.322c-10.342-24.968-13.048-52.442-7.775-78.947s18.286-50.852 37.395-69.962c19.11-19.11 43.457-32.12 69.962-37.394s53.98-2.566 78.947 7.774c24.968 10.342 46.308 27.855 61.322 50.326s23.028 48.888 23.028 75.913c0 36.239-14.396 70.994-40.020 96.619s-60.38 40.021-96.619 40.021zM551.674-64h-79.36c-25.599 0.083-50.224 9.818-68.966 27.258-18.742 17.434-30.223 41.293-32.155 66.822 0.102 6.381-1.708 12.653-5.197 17.997s-8.497 9.53-14.381 12.006c-5.884 2.477-12.374 3.136-18.636 1.894s-12.011-4.326-16.506-8.858c-19.407-16.768-44.429-25.594-70.061-24.704-25.632 0.896-49.983 11.43-68.179 29.504l-56.321 56.32c-17.983 18.182-28.462 42.464-29.351 68.019-0.89 25.562 7.876 50.515 24.551 69.901 2.789 3.469 6.321 6.272 10.337 8.198 4.015 1.92 8.411 2.925 12.864 2.925s8.849-1.005 12.863-2.925c4.015-1.926 7.548-4.73 10.337-8.198 3.311-2.714 6.044-6.067 8.035-9.856 1.992-3.795 3.203-7.949 3.561-12.211 0.358-4.269-0.144-8.563-1.476-12.634s-3.468-7.834-6.28-11.059c-4.979-6.291-7.414-14.221-6.821-22.227 0.593-8 4.169-15.488 10.021-20.973l56.32-56.32c5.781-6.176 13.774-9.818 22.23-10.112 8.456-0.301 16.685 2.758 22.89 8.512 14.21 12.339 31.573 20.486 50.147 23.52 18.574 3.040 37.627 0.845 55.028-6.323 17.4-7.174 32.462-19.046 43.501-34.291s17.619-33.254 19.004-52.026c0-8.486 3.372-16.627 9.373-22.63 6.001-5.997 14.141-9.37 22.628-9.37h79.68c8.487 0 16.626 3.373 22.627 9.37 6.001 6.003 9.373 14.144 9.373 22.63 1.322 18.765 7.835 36.794 18.812 52.070 10.977 15.27 25.986 27.194 43.35 34.432 17.363 7.238 36.397 9.504 54.976 6.547 18.573-2.957 35.962-11.021 50.221-23.29 2.976-3.002 6.515-5.382 10.413-7.008 3.904-1.619 8.083-2.458 12.307-2.458s8.41 0.838 12.307 2.458c3.898 1.626 7.437 4.006 10.413 7.008l56.32 56.32c6.176 5.779 9.818 13.773 10.112 22.227 0.301 8.454-2.758 16.685-8.512 22.893-12.339 14.208-20.486 31.571-23.52 50.144-3.040 18.579-0.845 37.632 6.323 55.027 7.174 17.404 19.046 32.465 34.291 43.504s33.254 17.619 52.026 19.004c8.486 0 16.627 3.372 22.63 9.373 5.997 6.001 9.37 14.141 9.37 22.627v80.641c0 8.487-3.373 16.626-9.37 22.627-6.003 6.001-14.144 9.373-22.63 9.373-4.557 0.315-9.011 1.525-13.101 3.562-4.096 2.036-7.744 4.858-10.746 8.305-6.061 6.961-9.107 16.045-8.474 25.254 0.64 9.208 4.909 17.787 11.866 23.848 6.963 6.061 16.045 9.109 25.254 8.472 25.818-1.615 50.061-12.939 67.872-31.697 17.805-18.758 27.859-43.56 28.128-69.423v-79.68c-0.090-25.599-9.818-50.224-27.258-68.966-17.434-18.742-41.293-30.221-66.822-32.154-6.381 0.102-12.653-1.709-17.997-5.197s-9.53-8.499-12.006-14.381c-2.477-5.888-3.136-12.378-1.894-18.637 1.242-6.266 4.326-12.013 8.858-16.506 16.768-19.405 25.594-44.429 24.698-70.061-0.89-25.632-11.424-49.984-29.498-68.179l-56.32-56.32c-18.182-17.984-42.464-28.461-68.019-29.35-25.562-0.89-50.515 7.872-69.901 24.55-4.435 4.602-10.157 7.776-16.41 9.101-6.259 1.325-12.768 0.742-18.694-1.67-5.92-2.413-10.989-6.541-14.541-11.859s-5.434-11.578-5.395-17.971c-1.779-25.638-13.191-49.658-31.949-67.232-18.758-17.568-43.469-27.392-69.171-27.488zM96 306.88c-25.814 1.613-50.061 12.941-67.869 31.697-17.808 18.758-27.858 43.56-28.131 69.423v79.68c0.088 25.599 9.821 50.223 27.258 68.965s41.297 30.223 66.822 32.155c6.383-0.102 12.651 1.708 17.997 5.197s9.527 8.497 12.004 14.381c2.477 5.884 3.139 12.374 1.898 18.636s-4.326 12.011-8.86 16.506c-16.768 19.407-25.589 44.429-24.7 70.061s11.426 49.982 29.5 68.179l56.32 56.32c18.18 17.983 42.465 28.462 68.022 29.352s50.511-7.876 69.898-24.552c4.362-4.532 9.962-7.679 16.102-9.046s12.547-0.895 18.419 1.359c5.873 2.254 10.952 6.188 14.601 11.312s5.708 11.209 5.917 17.496c1.466 25.868 12.744 50.202 31.534 68.040s43.677 27.838 69.586 27.96h79.68c25.543-0.168 50.089-9.937 68.763-27.366s30.111-41.244 32.037-66.714c-0.102-6.383 1.709-12.651 5.197-17.997s8.499-9.527 14.381-12.004c5.882-2.477 12.378-3.139 18.637-1.898 6.266 1.24 12.013 4.326 16.506 8.86 19.405 16.768 44.429 25.589 70.061 24.7s49.984-11.426 68.179-29.5l56.32-56.32c18.074-18.197 28.608-42.547 29.498-68.179s-7.93-50.654-24.698-70.061c-3.104-2.927-6.765-5.202-10.765-6.692s-8.256-2.166-12.518-1.988c-4.262 0.179-8.448 1.209-12.307 3.030-3.866 1.82-7.322 4.394-10.17 7.571-3.462 2.452-6.355 5.624-8.48 9.297-2.118 3.674-3.424 7.763-3.821 11.987-0.39 4.224 0.128 8.484 1.536 12.488 1.402 4.004 3.654 7.656 6.605 10.708 4.979 6.291 7.411 14.223 6.822 22.224-0.595 8.001-4.173 15.487-10.022 20.976l-56 56.64c-5.997 5.96-14.106 9.306-22.56 9.306s-16.563-3.345-22.56-9.306c-14.336-12.412-31.866-20.557-50.592-23.511-18.733-2.954-37.92-0.599-55.379 6.799-17.458 7.397-32.495 19.54-43.403 35.051s-17.25 33.768-18.306 52.701c0 8.487-3.372 16.627-9.373 22.627s-14.14 9.373-22.627 9.373h-80.64c-8.487 0-16.627-3.372-22.627-9.373s-9.373-14.14-9.373-22.627c-1.194-18.977-7.698-37.236-18.769-52.694s-26.265-27.494-43.847-34.734c-17.582-7.24-36.845-9.392-55.592-6.211s-36.221 11.566-50.432 24.2c-2.975 2.999-6.514 5.38-10.413 7.005s-8.082 2.461-12.307 2.461c-4.225 0-8.407-0.836-12.307-2.461s-7.439-4.006-10.413-7.005l-56-57.6c-6.177-5.782-9.814-13.774-10.114-22.23s2.762-16.685 8.514-22.89c12.352-14.231 20.496-31.621 23.519-50.221s0.805-37.674-6.404-55.084c-7.21-17.41-19.127-32.468-34.415-43.485s-33.343-17.558-52.14-18.89c-8.487 0-16.627-3.372-22.627-9.373s-9.373-14.14-9.373-22.627v-79.68c0-8.487 3.372-16.627 9.373-22.627s14.14-9.373 22.627-9.373c4.623-0.21 9.158-1.329 13.348-3.292s7.953-4.733 11.073-8.15c3.12-3.417 5.536-7.416 7.111-11.766s2.277-8.97 2.067-13.592c-0.21-4.623-1.329-9.158-3.292-13.348s-4.733-7.951-8.15-11.074c-3.417-3.117-7.416-5.536-11.766-7.11s-8.97-2.278-13.592-2.067z" />
<glyph unicode="&#xe90b;" glyph-name="close" d="M586.528 447.281l420.848 418.553c20.177 19.975 20.177 52.308 0 72.226-20.125 19.975-52.819 19.975-72.942 0l-420.489-418.19-424.377 424.426c-20.125 20.174-52.819 20.174-72.942 0-20.125-20.23-20.125-52.967 0-73.148l424.069-424.122-425.603-423.251c-20.125-19.972-20.125-52.308 0-72.226 20.125-19.972 52.819-19.972 72.942 0l425.243 422.896 422.686-422.736c20.125-20.177 52.819-20.177 72.942 0 20.125 20.23 20.125 52.965 0 73.148l-422.38 422.431z" />
<glyph unicode="&#xe90c;" glyph-name="logout" d="M300 720v80c0 88.227 71.774 160 160 160h402.003c88.225 0 160-71.773 160-160v-704c0-88.225-71.775-160-160-160h-402.003c-88.226 0-160 71.775-160 160v80.004c0 22.089 17.906 39.995 40 39.995s40-17.905 40-40.002v-79.996c0-44.112 35.89-79.996 80-79.996h402.003c44.105 0 79.996 35.884 79.996 79.996v704c0 44.11-35.891 80-79.996 80h-402.003c-44.11 0-80-35.89-80-80v-80c0-22.094-17.906-40-40-40s-40 17.906-40 40zM27.289 379.289l89.571-89.57c15.625-15.625 40.953-15.625 56.57 0 15.625 15.617 15.625 40.945 0 56.562l-63.711 63.719h480.282c22.094 0 40 17.906 40 40s-17.906 40-40 40h-480.282l63.711 63.718c15.625 15.617 15.625 40.945 0 56.563-7.812 7.812-18.047 11.719-28.281 11.719-10.242 0-20.476-3.907-28.289-11.719l-89.571-89.571c-38.992-38.992-38.992-102.429 0-141.422z" />
<glyph unicode="&#xe90d;" glyph-name="coupon" d="M972.449 443.244l-455.677-455.679c-9.565-9.618-20.974-17.196-33.545-22.287s-26.039-7.585-39.598-7.336c-29.315 0.497-57.272 12.442-77.897 33.28l-310.491 310.49c-10.206 9.649-18.401 21.222-24.113 34.053s-8.828 26.665-9.168 40.705c-0.34 14.041 2.103 28.010 7.187 41.102s12.71 25.049 22.437 35.18l455.68 455.68c11.794 11.661 26.242 20.283 42.105 25.124s32.663 5.758 48.958 2.67c4.732-0.839 9.252-2.601 13.302-5.188s7.55-5.945 10.301-9.885c2.751-3.94 4.699-8.383 5.731-13.076s1.131-9.543 0.288-14.274c-0.836-4.768-2.61-9.323-5.221-13.4s-6.004-7.596-9.984-10.352c-3.98-2.755-8.468-4.693-13.203-5.701s-9.623-1.066-14.381-0.17c-4.707 1.113-9.617 1.026-14.281-0.252s-8.934-3.706-12.416-7.063l-455.314-455.68c-5.767-6.881-8.614-15.746-7.931-24.699s4.843-17.283 11.588-23.21l310.491-310.49c5.926-6.744 14.256-10.906 23.21-11.586 8.953-0.688 17.818 2.158 24.699 7.929l455.677 455.679c3.357 3.482 5.786 7.752 7.066 12.416s1.368 9.575 0.249 14.281l-47.177 262.949c-1.492 8.083-5.398 15.522-11.213 21.334-5.808 5.812-13.253 9.723-21.336 11.215l-146.283 26.331c-9.699 1.698-18.327 7.179-23.985 15.237s-7.883 18.036-6.186 27.734c1.698 9.7 7.178 18.327 15.237 23.986s18.035 7.883 27.734 6.186l146.283-26.331c22.725-4.153 43.644-15.126 59.97-31.458 16.333-16.332 27.312-37.249 31.459-59.971l47.177-263.314c3.328-16.433 2.56-33.431-2.224-49.499s-13.436-30.718-25.205-42.661zM592.109 637.804c0.026 29.088 11.602 56.976 32.183 77.531 20.929 19.859 48.68 30.93 77.531 30.93s56.602-11.071 77.529-30.93c20.546-20.571 32.088-48.456 32.088-77.531s-11.542-56.96-32.088-77.531c-15.338-15.324-34.882-25.758-56.15-29.983-21.27-4.225-43.315-2.052-63.351 6.243s-37.163 22.344-49.22 40.368c-12.057 18.025-18.502 39.218-18.521 60.903zM665.252 637.804c-0.028-4.813 0.895-9.584 2.715-14.040s4.501-8.509 7.891-11.926c6.852-6.811 16.121-10.634 25.783-10.634s18.931 3.823 25.783 10.634c3.456 3.387 6.207 7.426 8.087 11.884 1.887 4.457 2.867 9.244 2.882 14.082 0 9.699-3.847 19.002-10.708 25.86-6.859 6.859-16.161 10.711-25.86 10.711-4.838-0.020-9.625-1-14.082-2.883s-8.496-4.632-11.884-8.088c-6.756-6.812-10.565-16.006-10.606-25.6z" />
<glyph unicode="&#xe90e;" glyph-name="house-shop" horiz-adv-x="896" d="M827.527 328.269c53.134 0 34.502 110.753 34.502 142.495-2.367 19.202-0.242 38.69 6.21 56.929 19.707 30.78 29.134 67.025 26.912 103.507-7.591 46.578-23.462 93.502-34.502 138.010s-15.871 98.332-47.268 130.419c-14.678 12.589-31.874 21.9-50.436 27.315s-38.070 6.806-57.211 4.082h-483.035c-24.842 0-50.719 2.070-75.215 0-65.555-6.555-86.256-59.689-100.057-114.203l-40.713-161.816c-4.785-14.709-7.23-30.076-7.246-45.543 1.285-24.187 8.008-47.774 19.666-69.005 5.653-7.35 10.619-15.204 14.836-23.462 3.968-36.465 3.968-73.253 0-109.718v-183.552c0-82.461-27.947-235.307 84.876-255.663 45.862-4.637 92.046-5.21 138.010-1.725 36.918 0 114.203-14.146 120.759 34.502 11.731 89.016-7.591 182.173 0 271.879 2.415 28.637 20.356 37.263 46.578 37.952s59.344 6.9 77.975-7.589c26.912-20.701 13.456-95.227 13.456-124.209v-161.816c0-21.046 0-42.783 25.187-50.029 16.023-2.236 32.28-2.236 48.303 0h159.401c14.615-0.897 29.265 1.214 43.031 6.21 13.766 4.989 26.36 12.759 37.001 22.82s19.108 22.199 24.862 35.661c5.762 13.462 8.695 27.967 8.619 42.61 2.76 49.643 2.76 99.401 0 149.050-2.76 32.087-42.783 58.654-64.175 22.082-6.113-18.68-7.763-38.533-4.83-57.964v-87.291c0-21.046 4.485-48.993-17.251-61.414-17.762-5.941-36.676-7.597-55.204-4.83h-87.636c-7.591 0-42.093-4.83-46.923 0s0 37.953 0 44.163v170.442c0 58.309-18.631 116.617-84.876 128.693-54.514 10.006-133.524 8.281-169.407-38.643-30.017-38.987-21.737-94.191-21.737-140.424v-90.051c2.933-21.757 2.933-43.804 0-65.555-4.14-11.731 0-8.626-17.596-8.626h-85.911c-36.918 0-99.022-13.111-103.507 37.608-3.45 39.333 0 80.736 0 120.068v270.843c35.671-15.122 75.353-17.974 112.82-8.107s70.598 31.892 94.195 62.621c16.356-21.001 37.29-37.993 61.206-49.68s50.185-17.762 76.803-17.762c26.62 0 52.888 6.076 76.803 17.762s44.85 28.679 61.206 49.68c23.559-30.777 56.691-52.839 94.171-62.709 37.484-9.87 77.182-6.987 112.843 8.195 0-32.432-17.596-134.214 34.502-134.214zM705.043 519.067c-17.762 3.348-34.336 11.287-48.082 23.030-13.738 11.744-24.165 26.881-30.238 43.904h194.939c-8.287-23.216-24.58-42.712-45.957-54.983-21.385-12.27-46.434-16.508-70.661-11.952zM541.847 577.032c-8.699-18.556-22.709-34.112-40.258-44.697s-37.844-15.722-58.314-14.762c-20.471 0.961-40.196 7.977-56.676 20.158s-28.972 28.982-35.895 48.271h194.594c-0.999-3.047-2.15-6.040-3.45-8.971zM265.827 577.032c-8.648-18.665-22.662-34.329-40.251-44.994s-37.959-15.847-58.507-14.885c-20.548 0.963-40.344 8.026-56.859 20.29s-29.004 29.169-35.87 48.56h194.939c-0.905-3.13-2.178-6.141-3.795-8.971h0.345zM547.022 655.007h-198.044l26.222 207.015h145.6l26.222-207.015zM772.668 835.8l45.198-180.793h-174.927c-4.485 0-23.117-2.76-26.567 0s-3.45 28.982-4.14 34.502l-8.626 69.005-13.111 103.507h91.086c27.602 0 81.771 10.006 91.086-26.222zM123.332 835.8c8.971 36.573 63.484 26.222 91.086 26.222h91.086l-12.766-100.057-8.971-72.455c0-5.175 0-31.052-4.14-34.502s-21.737 0-26.567 0h-174.927l45.198 180.793z" />
<glyph unicode="&#xe90f;" glyph-name="closed-box" d="M987.429 557.714c-9.699 0-19.003-3.853-25.863-10.712-6.853-6.859-10.708-16.16-10.708-25.86v-475.429c0-9.699-3.855-19.003-10.708-25.863-6.861-6.853-16.165-10.708-25.863-10.708h-804.571c-9.699 0-19.002 3.855-25.86 10.708-6.859 6.861-10.712 16.165-10.712 25.863v567.954c-0.083 5.972 1.298 11.873 4.023 17.189l118.126 235.886c3.067 6.086 7.774 11.195 13.59 14.749s12.509 5.412 19.324 5.365h132.754l-27.429-219.429h-150.674c-9.699 0-19.002-3.853-25.86-10.712s-10.712-16.16-10.712-25.86c0-9.699 3.853-19.002 10.712-25.86s16.16-10.711 25.86-10.711h146.286v-329.143c0.020-6.754 1.91-13.37 5.461-19.115s8.622-10.394 14.653-13.433c5.845-2.725 12.306-3.855 18.729-3.277s12.578 2.844 17.842 6.568l126.171 93.257 124.343-93.257c6.331-4.748 14.030-7.314 21.943-7.314 5.741-0.102 11.41 1.284 16.457 4.023 6.031 3.039 11.103 7.689 14.653 13.433s5.44 12.361 5.461 19.115v329.143h292.571c7 0.078 13.824 2.162 19.675 6.005 5.844 3.843 10.467 9.283 13.319 15.674 2.845 6.391 3.803 13.466 2.75 20.383-1.046 6.918-4.067 13.39-8.682 18.646-0.388 2.646-1.126 5.228-2.194 7.68l-118.126 236.617c-9.121 18.273-23.164 33.637-40.543 44.362s-37.413 16.387-57.834 16.347h-567.589c-20.423 0.040-40.452-5.621-57.833-16.347s-31.422-26.089-40.545-44.362l-118.126-236.617c-7.65-15.206-11.656-31.984-11.703-49.006v-567.954c0-29.096 11.559-57.008 32.135-77.583s48.482-32.132 77.58-32.132h804.571c29.096 0 57.008 11.557 77.583 32.132s32.132 48.486 32.132 77.583v475.429c0 9.699-3.855 19.001-10.708 25.86-6.861 6.859-16.165 10.712-25.863 10.712zM795.794 886.857c6.817 0.047 13.509-1.811 19.324-5.365s10.525-8.663 13.59-14.749l99.474-199.314h-241.371l-54.857 219.429h163.84zM434.469 886.857h122.149l54.857-219.429h-204.434l27.429 219.429zM402.286 594.286h219.429v-256l-87.771 65.829c-6.331 4.748-14.030 7.314-21.943 7.314s-15.612-2.567-21.943-7.314l-87.771-65.829v256zM841.143 155.429c9.699 0 19.003-3.855 25.863-10.708 6.853-6.861 10.708-16.165 10.708-25.863s-3.855-19.003-10.708-25.863c-6.861-6.853-16.165-10.708-25.863-10.708h-146.286c-9.699 0-19.002 3.855-25.86 10.708-6.859 6.861-10.712 16.165-10.712 25.863s3.853 19.003 10.712 25.863c6.858 6.853 16.16 10.708 25.86 10.708h146.286z" />
<glyph unicode="&#xe910;" glyph-name="eye" d="M1016.354 480.81c-9.14 10.196-228.99 249.99-504.354 249.99s-495.212-239.794-504.354-249.99c-10.196-11.396-10.196-28.624 0-40.020 9.142-10.196 228.994-249.99 504.354-249.99s495.212 239.794 504.354 249.99c10.194 11.396 10.194 28.624 0 40.020zM512 250.8c-115.782 0-210 94.218-210 210s94.218 210 210 210 210-94.218 210-210-94.218-210-210-210zM542 520.8c0 30.18 14.982 56.73 37.774 73.060-20.452 10.47-43.264 16.94-67.774 16.94-82.706 0-150-67.294-150-150s67.294-150 150-150c74.048 0 135.336 54.068 147.444 124.716-60.412-19.45-117.444 26.24-117.444 85.284z" />
<glyph unicode="&#xe911;" glyph-name="arrow-left" d="M269.116 460.561l472.017 444.987c16.319 15.387 16.319 40.331 0 55.716-16.322 15.381-42.78 15.381-59.1 0l-501.568-472.845c-16.316-15.387-16.316-40.331 0-55.716l501.568-472.843c16.605-15.12 43.065-14.683 59.1 0.967 15.642 15.268 15.642 39.477 0 54.746l-472.017 444.987z" />
<glyph unicode="&#xe912;" glyph-name="arrow-right" d="M754.884 460.561l-472.017 444.987c-16.319 15.387-16.319 40.331 0 55.716 16.322 15.381 42.78 15.381 59.1 0l501.568-472.845c16.316-15.387 16.316-40.331 0-55.716l-501.568-472.843c-16.605-15.12-43.065-14.683-59.1 0.967-15.642 15.268-15.642 39.477 0 54.746l472.017 444.987z" />
<glyph unicode="&#xe913;" glyph-name="arrow-down" d="M511.762 217.917l444.986 472.016c15.387 16.319 40.331 16.319 55.716 0 15.381-16.322 15.381-42.78 0-59.1l-472.844-501.567c-15.387-16.316-40.331-16.316-55.716 0l-472.842 501.567c-15.12 16.605-14.683 43.065 0.967 59.1 15.268 15.642 39.477 15.642 54.746 0l444.986-472.016z" />
<glyph unicode="&#xe914;" glyph-name="arrow-up" d="M511.762 703.683l444.986-472.016c15.387-16.319 40.331-16.319 55.716 0 15.381 16.322 15.381 42.78 0 59.1l-472.844 501.567c-15.387 16.316-40.331 16.316-55.716 0l-472.842-501.567c-15.12-16.605-14.683-43.065 0.967-59.1 15.268-15.642 39.477-15.642 54.746 0l444.986 472.016z" />
<glyph unicode="&#xe915;" glyph-name="filter" d="M993.092 957.779c-4.958 9.25-14.592 15.021-25.092 15.021h-910.219c-10.49 0-20.136-5.771-25.083-15.021s-4.406-20.469 1.417-29.198l336.552-504.833v-446.502c0.010-15.706 12.739-28.437 28.448-28.446 2.323-0.009 4.635 0.282 6.885 0.853l227.562 56.887c12.655 3.166 21.551 14.541 21.551 27.593v389.615l336.563 504.833c5.803 8.729 6.353 19.948 1.417 29.198zM602.999 448.132c-3.115-4.676-4.77-10.167-4.783-15.778v-376l-170.667-42.667v418.667c0 5.611-1.655 11.102-4.769 15.778l-311.865 467.782h803.947l-311.863-467.782z" />
<glyph unicode="&#xe916;" glyph-name="search" d="M597.483 972.456c-167.369 0.26-319.379-97.539-388.501-249.966-69.133-152.427-42.569-331.211 67.893-456.945l-268.189-268.203c-7.393-7.13-10.361-17.711-7.758-27.644 2.603-9.946 10.361-17.715 20.306-20.318 9.944-2.594 20.514 0.367 27.657 7.757l268.189 268.203c142.598-124.732 350.402-140.39 510.065-38.426 159.676 101.952 232.887 297.054 179.729 478.887s-219.947 306.769-409.391 306.655zM597.483 176.282c-204.158 0-369.654 165.504-369.654 369.655 0 204.147 165.495 369.653 369.654 369.653 204.151 0 369.647-165.506 369.647-369.653-0.23-204.058-165.589-369.417-369.647-369.655z" />
<glyph unicode="&#xe917;" glyph-name="circle-plus" d="M512 972.8c-101.263 0-200.254-30.028-284.452-86.288s-149.822-136.223-188.574-229.778c-38.752-93.556-48.891-196.501-29.136-295.822 19.756-99.317 68.519-190.548 140.123-262.151s162.834-120.368 262.151-140.123c99.321-19.756 202.266-9.615 295.823 29.136 93.553 38.751 173.517 104.375 229.778 188.573 56.258 84.198 86.287 183.19 86.287 284.453 0 135.79-53.943 266.020-149.961 362.039s-226.249 149.961-362.039 149.961zM512 21.943c-86.799 0-171.646 25.739-243.816 73.962-72.17 48.219-128.419 116.762-161.635 196.952s-41.907 168.43-24.974 253.561c16.934 85.13 58.73 163.326 120.106 224.701s139.572 103.172 224.701 120.106c85.131 16.934 173.371 8.243 253.561-24.974s148.732-89.465 196.952-161.635c48.223-72.17 73.962-157.017 73.962-243.816 0-116.392-46.237-228.016-128.538-310.32-82.304-82.3-193.927-128.538-310.32-128.538zM768 460.8c0-9.699-3.855-19.003-10.712-25.86s-16.161-10.712-25.86-10.712h-182.857v-182.857c0-9.699-3.851-19.003-10.712-25.86-6.857-6.857-16.161-10.712-25.86-10.712s-19.003 3.855-25.86 10.712c-6.857 6.857-10.712 16.161-10.712 25.86v182.857h-182.857c-9.699 0-19.001 3.855-25.86 10.712s-10.711 16.161-10.711 25.86c0 9.699 3.853 19.003 10.711 25.86s16.161 10.712 25.86 10.712h182.857v182.857c0 9.699 3.855 19.001 10.712 25.86s16.161 10.711 25.86 10.711c9.699 0 19.003-3.853 25.86-10.711 6.861-6.859 10.712-16.161 10.712-25.86v-182.857h182.857c9.699 0 19.003-3.855 25.86-10.712s10.712-16.161 10.712-25.86z" />
<glyph unicode="&#xe918;" glyph-name="circle-sub" d="M768 460.8c0-9.699-3.855-19.003-10.712-25.86s-16.161-10.712-25.86-10.712h-438.857c-9.699 0-19.001 3.855-25.86 10.712s-10.711 16.161-10.711 25.86c0 9.699 3.853 19.003 10.711 25.86s16.161 10.712 25.86 10.712h438.857c9.699 0 19.003-3.855 25.86-10.712s10.712-16.161 10.712-25.86zM1024 460.8c0-101.263-30.029-200.254-86.287-284.453-56.261-84.198-136.225-149.822-229.778-188.573-93.557-38.751-196.502-48.892-295.823-29.136-99.317 19.756-190.546 68.52-262.151 140.123s-120.368 162.834-140.123 262.151c-19.756 99.321-9.616 202.266 29.136 295.822s104.376 173.519 188.574 229.778c84.198 56.259 183.189 86.288 284.452 86.288 135.79 0 266.021-53.943 362.039-149.961s149.961-226.249 149.961-362.039zM950.857 460.8c0 86.799-25.739 171.646-73.962 243.816-48.219 72.17-116.762 128.419-196.952 161.635s-168.43 41.907-253.561 24.974c-85.129-16.933-163.326-58.73-224.701-120.106s-103.172-139.572-120.106-224.701c-16.933-85.131-8.242-173.371 24.974-253.561s89.465-148.732 161.635-196.952c72.17-48.223 157.017-73.962 243.816-73.962 116.392 0 228.016 46.237 310.32 128.538 82.3 82.304 128.538 193.927 128.538 310.32z" />
<glyph unicode="&#xe919;" glyph-name="check" horiz-adv-x="1229" d="M1210.911 881.285c-23.996 23.999-62.905 23.999-86.912 0l-736.212-736.224-282.989 282.989c-23.997 23.999-62.903 23.997-86.905 0-23.999-23.996-23.999-62.903 0-86.901l326.442-326.438c23.989-23.996 62.925-23.98 86.904 0l779.671 779.669c23.996 23.997 23.996 62.906 0 86.905z" />
<glyph unicode="&#xe91a;" glyph-name="copy" d="M903.468-50.667h-544c-66.175 0-120 53.826-120 119.999v544c0 66.175 53.825 120 120 120h544c66.173 0 119.999-53.825 119.999-120v-544c0-66.173-53.826-119.999-119.999-119.999zM359.467 653.333c-22.057 0-40-17.943-40-40v-544c0-22.054 17.943-40 40-40h544c22.054 0 40 17.945 40 40v544c0 22.057-17.945 40-40 40h-544zM159.467 269.335h-40c-22.057 0-40 17.94-40 40v543.998c0 22.057 17.945 40 40 40h543.998c22.060 0 40-17.945 40-40v-38h79.999v38c0 66.175-53.822 120-119.999 120h-543.998c-66.175 0-120-53.825-120-120v-543.998c0-66.178 53.825-119.999 120-119.999h40v79.999z" />
<glyph unicode="&#xe925;" glyph-name="hamburger-button" d="M51.855 805.891c-0.214 0.004-0.469 0.005-0.723 0.005-28.24 0-51.132-22.892-51.132-51.132s22.892-51.132 51.132-51.132c0.254 0 0.508 0.002 0.761 0.006h920.252c0.214-0.004 0.469-0.005 0.723-0.005 28.24 0 51.132 22.892 51.132 51.132s-22.892 51.132-51.132 51.132c-0.254 0-0.508-0.002-0.761-0.006h-920.252zM51.855 499.128c-0.214 0.004-0.469 0.005-0.723 0.005-28.24 0-51.132-22.892-51.132-51.132s22.892-51.132 51.132-51.132c0.254 0 0.508 0.002 0.761 0.006h920.252c0.214-0.004 0.469-0.005 0.723-0.005 28.24 0 51.132 22.892 51.132 51.132s-22.892 51.132-51.132 51.132c-0.254 0-0.508-0.002-0.761-0.006h-920.252zM51.855 192.364c-0.214 0.004-0.469 0.005-0.723 0.005-28.24 0-51.132-22.892-51.132-51.132s22.892-51.132 51.132-51.132c0.254 0 0.508 0.002 0.761 0.006h920.252c0.214-0.004 0.469-0.005 0.723-0.005 28.24 0 51.132 22.892 51.132 51.132s-22.892 51.132-51.132 51.132c-0.254 0-0.508-0.002-0.761-0.006h-920.252z" />
<glyph unicode="&#xe92c;" glyph-name="triangle-left" d="M120.669 555.886l568.794 389.395c26.267 17.996 52.736 27.52 74.735 27.52 42.532 0 68.841-34.135 68.841-91.269v-841.594c0-57.071-26.277-91.137-68.707-91.137-22.034 0-48.077 9.533-74.403 27.577l-569.058 389.386c-36.596 25.083-56.863 58.836-56.863 95.084-0.007 36.222 20.026 69.967 56.664 95.042z" />
<glyph unicode="&#xe92d;" glyph-name="triangle-right" d="M903.331 555.886l-568.794 389.395c-26.267 17.996-52.736 27.52-74.735 27.52-42.532 0-68.841-34.135-68.841-91.269v-841.594c0-57.071 26.277-91.137 68.707-91.137 22.034 0 48.077 9.533 74.403 27.577l569.058 389.386c36.596 25.083 56.863 58.836 56.863 95.084 0.007 36.222-20.026 69.967-56.664 95.042z" />
<glyph unicode="&#xe92e;" glyph-name="triangle-up" d="M607.086 788.651l389.393-568.792c17.995-26.268 27.52-52.735 27.52-74.734 0-42.531-34.134-68.841-91.27-68.841h-841.592c-57.070 0-91.137 26.276-91.137 68.708 0 22.033 9.532 48.076 27.577 74.403l389.386 569.058c25.083 36.595 58.835 56.863 95.084 56.863 36.222 0.008 69.968-20.027 95.042-56.664z" />
<glyph unicode="&#xe92f;" glyph-name="triangle-down" d="M607.087 132.95l389.393 568.792c17.995 26.268 27.52 52.735 27.52 74.734 0 42.531-34.134 68.841-91.27 68.841h-841.592c-57.070 0-91.137-26.276-91.137-68.708 0-22.033 9.532-48.076 27.577-74.403l389.386-569.057c25.083-36.595 58.835-56.863 95.084-56.863 36.222-0.008 69.968 20.027 95.042 56.664z" />
</font>
</defs>
</svg>
