<svg width="1829" height="977" viewBox="0 0 1829 977" fill="none" xmlns="http://www.w3.org/2000/svg">
<path fill-rule="evenodd" clip-rule="evenodd" d="M1104.5 206.828C1104.49 205.407 1103.73 204.099 1102.5 203.391L754.903 3.44814C752.236 1.91422 748.908 3.83907 748.908 6.91543V113.281V413.031C748.908 414.472 749.683 415.801 750.936 416.511L837.337 465.471C840.003 466.982 843.309 465.056 843.309 461.991V171.727C843.309 168.688 846.564 166.759 849.23 168.219L1011.15 256.889C1012.43 257.591 1013.23 258.936 1013.23 260.398V564.072C1013.23 565.512 1014 566.842 1015.26 567.552L1101.61 616.482C1104.28 618 1107.6 616.05 1107.58 612.972L1104.5 206.828Z" fill="#800A64"/>
<path fill-rule="evenodd" clip-rule="evenodd" d="M1019.5 263.494C1019.52 262.059 1018.76 260.729 1017.52 260.007L663.668 53.8504C661.001 52.2968 657.654 54.2205 657.654 57.3067V163.627V463.378C657.654 464.818 658.429 466.148 659.682 466.858L746.083 515.818C748.749 517.329 752.055 515.403 752.055 512.338V222.074C752.055 219.035 755.31 217.106 757.976 218.565L919.897 307.236C921.179 307.938 921.976 309.283 921.976 310.745V614.419C921.976 615.859 922.75 617.188 924.004 617.899L1010.46 666.889C1013.11 668.393 1016.4 666.49 1016.43 663.439L1019.5 263.494Z" fill="#B71392"/>
<path d="M2.01132 973.982C0.902346 973.988 0 973.091 0 971.982V863.531C0 862.426 0.895431 861.531 2 861.531H38.5088C39.2151 861.531 39.869 861.903 40.2292 862.511L70.0579 912.826C70.9918 914.402 73.6915 913.486 73.6009 911.657C73.4121 907.472 73.2862 903.318 73.2862 899.07V863.31C73.2862 862.206 74.1816 861.31 75.2862 861.31H110.337C111.441 861.31 112.337 862.206 112.337 863.31V971.773C112.337 972.877 111.441 973.773 110.337 973.773H73.4499C72.7437 973.773 72.0899 973.4 71.7297 972.793L41.837 922.383C41.012 920.992 38.5582 921.842 38.6412 923.457C38.83 927.454 38.9244 930.726 38.9244 933.212V971.784C38.9244 972.884 38.0359 973.778 36.9358 973.784L2.01132 973.982Z" fill="black"/>
<path d="M209.683 973.993C208.578 973.993 207.683 973.097 207.683 971.993V863.531C207.683 862.426 208.578 861.531 209.683 861.531H280.888C281.993 861.531 282.888 862.426 282.888 863.531V890.022C282.888 891.126 281.993 892.022 280.888 892.022H249.331C248.226 892.022 247.331 892.917 247.331 894.022V900.878C247.331 901.983 248.226 902.878 249.331 902.878H277.584C278.689 902.878 279.584 903.773 279.584 904.878V929.67C279.584 930.775 278.689 931.67 277.584 931.67H249.331C248.226 931.67 247.331 932.565 247.331 933.67V941.502C247.331 942.606 248.226 943.502 249.331 943.502H281.832C282.937 943.502 283.832 944.397 283.832 945.502V971.993C283.832 973.097 282.937 973.993 281.832 973.993H209.683Z" fill="black"/>
<path d="M382.607 922.545V863.531C382.607 862.426 383.503 861.531 384.607 861.531H421.042C422.147 861.531 423.042 862.426 423.042 863.531V922.828C423.042 930.065 423.892 934.943 425.559 937.523C426.515 938.918 427.829 940.031 429.362 940.745C430.895 941.459 432.592 941.748 434.276 941.582C435.939 941.725 437.61 941.425 439.119 940.712C440.628 939.999 441.921 938.899 442.866 937.523C445.02 932.94 445.953 927.878 445.572 922.828V863.531C445.572 862.426 446.468 861.531 447.572 861.531H484.007C485.112 861.531 486.007 862.426 486.007 863.531V922.545C486.146 929.135 485.63 935.723 484.465 942.211C483.594 946.859 481.83 951.293 479.273 955.27C474.781 962.243 468.411 967.806 460.897 971.318C452.473 975.047 443.362 976.973 434.15 976.973C424.937 976.973 415.827 975.047 407.403 971.318C399.889 967.806 393.519 962.243 389.026 955.27C386.645 951.28 384.984 946.902 384.118 942.337C382.959 935.806 382.453 929.176 382.607 922.545Z" fill="black"/>
<path d="M611.269 973.985C610.161 973.989 609.261 973.093 609.261 971.985V898.315H588.73C587.626 898.315 586.73 897.42 586.73 896.315V863.531C586.73 862.426 587.626 861.531 588.73 861.531H670.163C671.267 861.531 672.163 862.426 672.163 863.531V896.315C672.163 897.42 671.267 898.315 670.163 898.315H649.664V971.843C649.664 972.945 648.773 973.839 647.672 973.843L611.269 973.985Z" fill="black"/>
<path d="M779.229 973.993C778.125 973.993 777.229 973.097 777.229 971.993V863.531C777.229 862.426 778.125 861.531 779.229 861.531H828.08C842.89 861.531 854.166 864.782 861.907 871.285C869.679 877.862 873.581 887.207 873.581 899.416C873.882 906.442 871.822 913.366 867.728 919.083C865.878 921.644 863.504 923.782 860.764 925.355C858.025 926.929 854.982 927.901 851.837 928.209L879.826 970.896C880.698 972.226 879.744 973.993 878.154 973.993H837.748C837.007 973.993 836.328 973.584 835.981 972.93L816.878 936.894V971.993C816.878 973.097 815.982 973.993 814.878 973.993H779.229ZM816.878 890.48V912.507H823.171C826.429 912.757 829.656 911.73 832.171 909.643C833.243 908.619 834.08 907.373 834.624 905.993C835.167 904.613 835.404 903.131 835.317 901.651C835.381 900.116 835.135 898.584 834.594 897.146C834.054 895.708 833.23 894.393 832.171 893.281C829.615 891.279 826.41 890.292 823.171 890.512L816.878 890.48Z" fill="black"/>
<path d="M1079.19 917.982C1079.27 925.86 1077.76 933.673 1074.75 940.953C1071.82 948.147 1067.45 954.666 1061.91 960.109C1056.37 965.553 1049.77 969.807 1042.53 972.608C1027.34 978.464 1010.52 978.464 995.326 972.608C988.072 969.639 981.451 965.314 975.817 959.864C970.441 954.444 966.166 948.032 963.23 940.984C957.608 926.089 957.608 909.655 963.23 894.76C966.195 887.727 970.466 881.321 975.817 875.879C981.411 870.495 987.979 866.223 995.169 863.293C1010.47 857.628 1027.29 857.628 1042.59 863.293C1049.85 866.182 1056.47 870.457 1062.1 875.879C1067.64 881.356 1072 887.907 1074.92 895.131C1077.84 902.355 1079.25 910.099 1079.06 917.888L1079.19 917.982ZM1019.05 939.222C1021.63 939.321 1024.19 938.857 1026.56 937.863C1028.94 936.868 1031.07 935.367 1032.8 933.464C1036.13 928.977 1037.93 923.538 1037.93 917.951C1037.93 912.363 1036.13 906.924 1032.8 902.437C1031.08 900.517 1028.95 898.998 1026.58 897.987C1024.2 896.976 1021.63 896.497 1019.05 896.585C1016.46 896.503 1013.88 896.983 1011.49 897.994C1009.1 899.004 1006.96 900.52 1005.21 902.437C1001.88 906.924 1000.08 912.363 1000.08 917.951C1000.08 923.538 1001.88 928.977 1005.21 933.464C1006.96 935.364 1009.11 936.863 1011.5 937.856C1013.89 938.85 1016.47 939.316 1019.05 939.222Z" fill="black"/>
<path d="M1172.58 973.982C1171.47 973.988 1170.56 973.091 1170.56 971.982V863.531C1170.56 862.426 1171.46 861.531 1172.56 861.531H1209.07C1209.78 861.531 1210.43 861.903 1210.79 862.51L1245.11 920.342C1244.62 917.469 1244.3 914.569 1244.17 911.657C1243.98 907.472 1243.85 903.318 1243.85 899.07V863.31C1243.85 862.206 1244.75 861.31 1245.85 861.31H1280.87C1281.97 861.31 1282.87 862.206 1282.87 863.31V971.773C1282.87 972.877 1281.97 973.773 1280.87 973.773H1244.01C1243.31 973.773 1242.65 973.4 1242.29 972.793L1208.26 915.402C1208.75 918.064 1209.07 920.754 1209.21 923.457C1209.39 927.454 1209.49 930.726 1209.49 933.212V973.773L1172.58 973.982Z" fill="black"/>
<path d="M1377.1 973.999C1375.99 973.996 1375.1 973.101 1375.1 971.999V863.531C1375.1 862.426 1376 861.531 1377.1 861.531H1423.43C1440.43 861.531 1452.85 864.835 1460.69 871.443C1468.54 878.051 1472.48 888.424 1472.52 902.563C1472.52 915.779 1469.01 925.429 1461.98 931.513C1454.95 937.596 1443.72 940.743 1428.28 940.953H1415.69V972.113C1415.69 973.22 1414.79 974.116 1413.69 974.113L1377.1 973.999ZM1415.76 892.872V911.531H1422.05C1425.18 911.792 1428.29 910.896 1430.8 909.014C1431.84 908.244 1432.68 907.224 1433.23 906.047C1433.78 904.871 1434.02 903.576 1433.94 902.28C1433.98 900.968 1433.71 899.665 1433.17 898.47C1432.62 897.276 1431.81 896.222 1430.8 895.389C1428.28 893.52 1425.17 892.626 1422.05 892.872H1415.76Z" fill="black"/>
<path d="M1539.39 973.993C1538.01 973.993 1537.04 972.624 1537.51 971.321L1576.17 862.859C1576.46 862.062 1577.21 861.531 1578.06 861.531H1620.1C1620.95 861.531 1621.7 862.068 1621.99 862.87L1659.92 971.333C1660.37 972.633 1659.41 973.993 1658.03 973.993H1618.95C1618.03 973.993 1617.24 973.374 1617.01 972.489L1613.78 959.864H1583.28L1580.2 972.469C1579.98 973.364 1579.18 973.993 1578.25 973.993H1539.39ZM1590.05 933.086H1606.85L1603.39 920.499C1601.66 913.891 1600.5 908.919 1599.96 905.521C1599.37 902.299 1599 899.04 1598.86 895.766H1598.04C1597.9 899.04 1597.54 902.299 1596.94 905.521C1596.25 909.675 1595.08 914.678 1593.51 920.499L1590.05 933.086Z" fill="black"/>
<path d="M1750.96 973.993C1749.85 973.993 1748.96 973.098 1748.96 971.993V924.307L1713.01 864.402C1712.21 863.069 1713.17 861.373 1714.73 861.373H1755.98C1756.78 861.373 1757.5 861.847 1757.82 862.579L1766.73 883.18C1767.88 885.967 1768.88 888.813 1769.72 891.707C1769.82 891.849 1769.88 892.01 1769.91 892.179C1769.9 892.284 1769.9 892.39 1769.91 892.494C1770.72 889.834 1771.66 887.219 1772.74 884.659C1772.91 884.344 1773.06 884.018 1773.18 883.683C1773.23 883.51 1773.3 883.341 1773.37 883.18L1782.14 862.59C1782.45 861.852 1783.18 861.373 1783.98 861.373H1824.85C1826.42 861.373 1827.37 863.095 1826.55 864.427L1789.42 924.307V971.993C1789.42 973.098 1788.53 973.993 1787.42 973.993H1750.96Z" fill="black"/>
<path d="M2.01132 973.982C0.902346 973.988 0 973.091 0 971.982V863.531C0 862.426 0.895431 861.531 2 861.531H38.5088C39.2151 861.531 39.869 861.903 40.2292 862.511L70.0579 912.826C70.9918 914.402 73.6915 913.486 73.6009 911.657C73.4121 907.472 73.2862 903.318 73.2862 899.07V863.31C73.2862 862.206 74.1816 861.31 75.2862 861.31H110.337C111.441 861.31 112.337 862.206 112.337 863.31V971.773C112.337 972.877 111.441 973.773 110.337 973.773H73.4499C72.7437 973.773 72.0899 973.4 71.7297 972.793L41.837 922.383C41.012 920.992 38.5582 921.842 38.6412 923.457C38.83 927.454 38.9244 930.726 38.9244 933.212V971.784C38.9244 972.884 38.0359 973.778 36.9358 973.784L2.01132 973.982Z" fill="black"/>
<path d="M209.683 973.993C208.578 973.993 207.683 973.097 207.683 971.993V863.531C207.683 862.426 208.578 861.531 209.683 861.531H280.888C281.993 861.531 282.888 862.426 282.888 863.531V890.022C282.888 891.126 281.993 892.022 280.888 892.022H249.331C248.226 892.022 247.331 892.917 247.331 894.022V900.878C247.331 901.983 248.226 902.878 249.331 902.878H277.584C278.689 902.878 279.584 903.773 279.584 904.878V929.67C279.584 930.775 278.689 931.67 277.584 931.67H249.331C248.226 931.67 247.331 932.565 247.331 933.67V941.502C247.331 942.606 248.226 943.502 249.331 943.502H281.832C282.937 943.502 283.832 944.397 283.832 945.502V971.993C283.832 973.097 282.937 973.993 281.832 973.993H209.683Z" fill="black"/>
<path d="M382.607 922.545V863.531C382.607 862.426 383.503 861.531 384.607 861.531H421.042C422.147 861.531 423.042 862.426 423.042 863.531V922.828C423.042 930.065 423.892 934.943 425.559 937.523C426.515 938.918 427.829 940.031 429.362 940.745C430.895 941.459 432.592 941.748 434.276 941.582C435.939 941.725 437.61 941.425 439.119 940.712C440.628 939.999 441.921 938.899 442.866 937.523C445.02 932.94 445.953 927.878 445.572 922.828V863.531C445.572 862.426 446.468 861.531 447.572 861.531H484.007C485.112 861.531 486.007 862.426 486.007 863.531V922.545C486.146 929.135 485.63 935.723 484.465 942.211C483.594 946.859 481.83 951.293 479.273 955.27C474.781 962.243 468.411 967.806 460.897 971.318C452.473 975.047 443.362 976.973 434.15 976.973C424.937 976.973 415.827 975.047 407.403 971.318C399.889 967.806 393.519 962.243 389.026 955.27C386.645 951.28 384.984 946.902 384.118 942.337C382.959 935.806 382.453 929.176 382.607 922.545Z" fill="black"/>
<path d="M611.269 973.985C610.161 973.989 609.261 973.093 609.261 971.985V898.315H588.73C587.626 898.315 586.73 897.42 586.73 896.315V863.531C586.73 862.426 587.626 861.531 588.73 861.531H670.163C671.267 861.531 672.163 862.426 672.163 863.531V896.315C672.163 897.42 671.267 898.315 670.163 898.315H649.664V971.843C649.664 972.945 648.773 973.839 647.672 973.843L611.269 973.985Z" fill="black"/>
<path d="M779.229 973.993C778.125 973.993 777.229 973.097 777.229 971.993V863.531C777.229 862.426 778.125 861.531 779.229 861.531H828.08C842.89 861.531 854.166 864.782 861.907 871.285C869.679 877.862 873.581 887.207 873.581 899.416C873.882 906.442 871.822 913.366 867.728 919.083C865.878 921.644 863.504 923.782 860.764 925.355C858.025 926.929 854.982 927.901 851.837 928.209L879.826 970.896C880.698 972.226 879.744 973.993 878.154 973.993H837.748C837.007 973.993 836.328 973.584 835.981 972.93L816.878 936.894V971.993C816.878 973.097 815.982 973.993 814.878 973.993H779.229ZM816.878 890.48V912.507H823.171C826.429 912.757 829.656 911.73 832.171 909.643C833.243 908.619 834.08 907.373 834.624 905.993C835.167 904.613 835.404 903.131 835.317 901.651C835.381 900.116 835.135 898.584 834.594 897.146C834.054 895.708 833.23 894.393 832.171 893.281C829.615 891.279 826.41 890.292 823.171 890.512L816.878 890.48Z" fill="black"/>
<path d="M1079.19 917.982C1079.27 925.86 1077.76 933.673 1074.75 940.953C1071.82 948.147 1067.45 954.666 1061.91 960.109C1056.37 965.553 1049.77 969.807 1042.53 972.608C1027.34 978.464 1010.52 978.464 995.326 972.608C988.072 969.639 981.451 965.314 975.817 959.864C970.441 954.444 966.166 948.032 963.23 940.984C957.608 926.089 957.608 909.655 963.23 894.76C966.195 887.727 970.466 881.321 975.817 875.879C981.411 870.495 987.979 866.223 995.169 863.293C1010.47 857.628 1027.29 857.628 1042.59 863.293C1049.85 866.182 1056.47 870.457 1062.1 875.879C1067.64 881.356 1072 887.907 1074.92 895.131C1077.84 902.355 1079.25 910.099 1079.06 917.888L1079.19 917.982ZM1019.05 939.222C1021.63 939.321 1024.19 938.857 1026.56 937.863C1028.94 936.868 1031.07 935.367 1032.8 933.464C1036.13 928.977 1037.93 923.538 1037.93 917.951C1037.93 912.363 1036.13 906.924 1032.8 902.437C1031.08 900.517 1028.95 898.998 1026.58 897.987C1024.2 896.976 1021.63 896.497 1019.05 896.585C1016.46 896.503 1013.88 896.983 1011.49 897.994C1009.1 899.004 1006.96 900.52 1005.21 902.437C1001.88 906.924 1000.08 912.363 1000.08 917.951C1000.08 923.538 1001.88 928.977 1005.21 933.464C1006.96 935.364 1009.11 936.863 1011.5 937.856C1013.89 938.85 1016.47 939.316 1019.05 939.222Z" fill="black"/>
<path d="M1172.58 973.982C1171.47 973.988 1170.56 973.091 1170.56 971.982V863.531C1170.56 862.426 1171.46 861.531 1172.56 861.531H1209.07C1209.78 861.531 1210.43 861.903 1210.79 862.51L1245.11 920.342C1244.62 917.469 1244.3 914.569 1244.17 911.657C1243.98 907.472 1243.85 903.318 1243.85 899.07V863.31C1243.85 862.206 1244.75 861.31 1245.85 861.31H1280.87C1281.97 861.31 1282.87 862.206 1282.87 863.31V971.773C1282.87 972.877 1281.97 973.773 1280.87 973.773H1244.01C1243.31 973.773 1242.65 973.4 1242.29 972.793L1208.26 915.402C1208.75 918.064 1209.07 920.754 1209.21 923.457C1209.39 927.454 1209.49 930.726 1209.49 933.212V973.773L1172.58 973.982Z" fill="black"/>
<path d="M1377.1 973.999C1375.99 973.996 1375.1 973.101 1375.1 971.999V863.531C1375.1 862.426 1376 861.531 1377.1 861.531H1423.43C1440.43 861.531 1452.85 864.835 1460.69 871.443C1468.54 878.051 1472.48 888.424 1472.52 902.563C1472.52 915.779 1469.01 925.429 1461.98 931.513C1454.95 937.596 1443.72 940.743 1428.28 940.953H1415.69V972.113C1415.69 973.22 1414.79 974.116 1413.69 974.113L1377.1 973.999ZM1415.76 892.872V911.531H1422.05C1425.18 911.792 1428.29 910.896 1430.8 909.014C1431.84 908.244 1432.68 907.224 1433.23 906.047C1433.78 904.871 1434.02 903.576 1433.94 902.28C1433.98 900.968 1433.71 899.665 1433.17 898.47C1432.62 897.276 1431.81 896.222 1430.8 895.389C1428.28 893.52 1425.17 892.626 1422.05 892.872H1415.76Z" fill="black"/>
<path d="M1539.39 973.993C1538.01 973.993 1537.04 972.624 1537.51 971.321L1576.17 862.859C1576.46 862.062 1577.21 861.531 1578.06 861.531H1620.1C1620.95 861.531 1621.7 862.068 1621.99 862.87L1659.92 971.333C1660.37 972.633 1659.41 973.993 1658.03 973.993H1618.95C1618.03 973.993 1617.24 973.374 1617.01 972.489L1613.78 959.864H1583.28L1580.2 972.469C1579.98 973.364 1579.18 973.993 1578.25 973.993H1539.39ZM1590.05 933.086H1606.85L1603.39 920.499C1601.66 913.891 1600.5 908.919 1599.96 905.521C1599.37 902.299 1599 899.04 1598.86 895.766H1598.04C1597.9 899.04 1597.54 902.299 1596.94 905.521C1596.25 909.675 1595.08 914.678 1593.51 920.499L1590.05 933.086Z" fill="black"/>
<path d="M1750.96 973.993C1749.85 973.993 1748.96 973.098 1748.96 971.993V924.307L1713.01 864.402C1712.21 863.069 1713.17 861.373 1714.73 861.373H1755.98C1756.78 861.373 1757.5 861.847 1757.82 862.579L1766.73 883.18C1767.88 885.967 1768.88 888.813 1769.72 891.707C1769.82 891.849 1769.88 892.01 1769.91 892.179C1769.9 892.284 1769.9 892.39 1769.91 892.494C1770.72 889.834 1771.66 887.219 1772.74 884.659C1772.91 884.344 1773.06 884.018 1773.18 883.683C1773.23 883.51 1773.3 883.341 1773.37 883.18L1782.14 862.59C1782.45 861.852 1783.18 861.373 1783.98 861.373H1824.85C1826.42 861.373 1827.37 863.095 1826.55 864.427L1789.42 924.307V971.993C1789.42 973.098 1788.53 973.993 1787.42 973.993H1750.96Z" fill="black"/>
</svg>
