<svg width="3787" height="623" viewBox="0 0 3787 623" fill="none" xmlns="http://www.w3.org/2000/svg">
<path d="M613.94 407.957C604.742 408.009 597.258 400.553 597.258 391.338V231.455C597.258 222.276 604.685 214.836 613.846 214.836H655.797C661.655 214.836 667.078 217.931 670.065 222.98L717.393 302.964C718.994 305.671 723.623 304.098 723.468 300.956C723.144 293.765 722.929 286.629 722.929 279.331V231.076C722.929 221.898 730.355 214.457 739.516 214.457H773.304C782.465 214.457 789.891 221.898 789.891 231.076V391.054C789.891 400.232 782.465 407.673 773.304 407.673H730.704C724.847 407.673 719.424 404.578 716.437 399.53L669 319.383C667.585 316.993 663.377 318.453 663.52 321.229C663.844 328.094 664.005 333.717 664.005 337.988V391.147C664.005 400.289 656.636 407.715 647.512 407.766L613.94 407.957Z" fill="black"/>
<path d="M977.433 407.957C968.423 407.957 961.12 400.505 961.12 391.313V231.101C961.12 221.909 968.423 214.457 977.433 214.457H1071.64C1080.65 214.457 1087.95 221.909 1087.95 231.101V250.276C1087.95 259.468 1080.65 266.92 1071.64 266.92H1037.14C1032.08 266.92 1027.98 271.101 1027.98 276.259C1027.98 281.417 1032.08 285.599 1037.14 285.599H1066.06C1075.07 285.599 1082.38 293.05 1082.38 302.242V318.494C1082.38 327.686 1075.07 335.137 1066.06 335.137H1037.96C1032.45 335.137 1027.98 339.694 1027.98 345.316C1027.98 350.937 1032.45 355.494 1037.96 355.494H1073.23C1082.24 355.494 1089.54 362.946 1089.54 372.138V391.313C1089.54 400.505 1082.24 407.957 1073.23 407.957H977.433Z" fill="black"/>
<path d="M1260.82 316.726V230.671C1260.82 221.717 1268.88 214.457 1278.83 214.457H1318.1C1328.05 214.457 1336.11 221.717 1336.11 230.671V317.201C1336.11 329.332 1337.69 337.507 1340.8 341.832C1342.58 344.171 1345.03 346.036 1347.88 347.233C1350.74 348.43 1353.9 348.915 1357.03 348.636C1360.13 348.876 1363.24 348.373 1366.05 347.178C1368.86 345.982 1371.27 344.138 1373.03 341.832C1377.04 334.151 1378.77 325.665 1378.07 317.201V230.671C1378.07 221.717 1386.13 214.457 1396.08 214.457H1435.35C1445.3 214.457 1453.36 221.717 1453.36 230.671V316.726C1453.62 327.773 1452.66 338.816 1450.49 349.691C1448.87 357.48 1445.58 364.913 1440.82 371.579C1432.46 383.267 1420.59 392.591 1406.6 398.478C1390.92 404.728 1373.95 407.957 1356.8 407.957C1339.64 407.957 1322.68 404.728 1306.99 398.478C1293 392.591 1281.14 383.267 1272.77 371.579C1268.34 364.891 1265.24 357.554 1263.63 349.902C1261.47 338.955 1260.53 327.842 1260.82 316.726Z" fill="black"/>
<path d="M1681.18 407.957C1671.79 407.993 1664.15 400.528 1664.15 391.308V277.769H1641.6C1632.23 277.769 1624.64 270.315 1624.64 261.12V231.106C1624.64 221.911 1632.23 214.457 1641.6 214.457H1757.5C1766.87 214.457 1774.46 221.911 1774.46 231.106V261.12C1774.46 270.315 1766.87 277.769 1757.5 277.769H1735.01V391.167C1735.01 400.336 1727.45 407.78 1718.11 407.816L1681.18 407.957Z" fill="black"/>
<path d="M1984.25 407.957C1974.76 407.957 1967.07 400.505 1967.07 391.313V231.101C1967.07 221.909 1974.76 214.457 1984.25 214.457H2057.38C2083.69 214.457 2103.71 220.052 2117.46 231.241C2131.27 242.556 2138.2 258.636 2138.2 279.643C2138.73 291.731 2135.07 303.644 2127.8 313.481C2124.52 317.887 2120.3 321.566 2115.43 324.273C2110.57 326.98 2105.16 328.653 2099.58 329.182L2135.45 382.187C2142.95 393.256 2134.75 407.957 2121.09 407.957H2082.75C2076.39 407.957 2070.55 404.553 2067.57 399.109L2037.49 344.125V391.313C2037.49 400.505 2029.79 407.957 2020.31 407.957H1984.25ZM2037.49 264.267V302.166H2048.66C2054.45 302.595 2060.18 300.828 2064.65 297.239C2066.55 295.476 2068.04 293.333 2069 290.959C2069.97 288.584 2070.39 286.035 2070.24 283.487C2070.35 280.846 2069.91 278.21 2068.95 275.736C2067.99 273.262 2066.53 271 2064.65 269.086C2060.11 265.641 2054.42 263.944 2048.66 264.321L2037.49 264.267Z" fill="black"/>
<path d="M2502.18 300.398C2502.33 314.757 2499.64 328.999 2494.28 342.267C2489.06 355.38 2481.28 367.262 2471.41 377.184C2461.54 387.107 2449.79 394.859 2436.89 399.966C2409.84 410.639 2379.88 410.639 2352.82 399.966C2339.9 394.555 2328.11 386.671 2318.08 376.738C2308.5 366.857 2300.89 355.171 2295.66 342.325C2285.65 315.175 2285.65 285.22 2295.66 258.07C2300.94 245.253 2308.55 233.576 2318.08 223.657C2328.04 213.843 2339.74 206.057 2352.54 200.716C2379.79 190.39 2409.75 190.39 2437 200.716C2449.93 205.982 2461.73 213.774 2471.75 223.657C2481.62 233.639 2489.39 245.58 2494.58 258.747C2499.78 271.915 2502.29 286.03 2501.96 300.226L2502.18 300.398ZM2395.08 339.113C2399.66 339.294 2404.23 338.448 2408.46 336.635C2412.69 334.822 2416.48 332.086 2419.57 328.617C2425.5 320.44 2428.71 310.526 2428.71 300.341C2428.71 290.156 2425.5 280.242 2419.57 272.065C2416.5 268.565 2412.71 265.796 2408.48 263.953C2404.25 262.11 2399.68 261.238 2395.08 261.397C2390.46 261.248 2385.87 262.124 2381.61 263.965C2377.35 265.807 2373.54 268.57 2370.42 272.065C2364.49 280.242 2361.29 290.156 2361.29 300.341C2361.29 310.526 2364.49 320.44 2370.42 328.617C2373.55 332.081 2377.37 334.812 2381.63 336.624C2385.89 338.435 2390.47 339.284 2395.08 339.113Z" fill="black"/>
<path d="M2668.7 407.957C2659.5 408.009 2652.01 400.553 2652.01 391.338V231.455C2652.01 222.276 2659.44 214.836 2668.6 214.836H2710.57C2716.43 214.836 2721.85 217.929 2724.84 222.974L2779.88 315.877C2779.03 310.94 2778.49 305.958 2778.26 300.956C2777.93 293.765 2777.72 286.629 2777.72 279.331V231.076C2777.72 221.898 2785.14 214.457 2794.31 214.457H2828.05C2837.22 214.457 2844.64 221.898 2844.64 231.076V391.054C2844.64 400.232 2837.22 407.673 2828.05 407.673H2785.49C2779.64 407.673 2774.21 404.578 2771.22 399.53L2716.67 307.389C2717.51 311.962 2718.05 316.585 2718.29 321.229C2718.61 328.094 2718.78 333.717 2718.78 337.988V407.673L2668.7 407.957Z" fill="black"/>
<path d="M3032.82 407.844C3023.45 407.815 3015.87 400.378 3015.87 391.214V231.087C3015.87 221.903 3023.48 214.457 3032.87 214.457H3100.82C3130.69 214.457 3152.52 220.137 3166.31 231.497C3180.1 242.857 3187.03 260.69 3187.1 284.997C3187.1 307.717 3180.93 324.306 3168.57 334.764C3156.22 345.222 3136.48 350.632 3109.34 350.993H3087.22V391.328C3087.22 400.532 3079.57 407.985 3070.16 407.957L3032.82 407.844ZM3087.33 268.336V300.414H3098.39C3103.88 300.862 3109.35 299.322 3113.76 296.087C3115.6 294.762 3117.07 293.009 3118.04 290.987C3119 288.965 3119.44 286.738 3119.3 284.51C3119.36 282.254 3118.89 280.014 3117.93 277.961C3116.97 275.908 3115.55 274.096 3113.76 272.663C3109.34 269.451 3103.88 267.913 3098.39 268.336H3087.33Z" fill="black"/>
<path d="M3311.95 407.957C3299.64 407.957 3291.05 396.562 3295.18 385.725L3356.26 225.513C3358.79 218.884 3365.5 214.457 3373.03 214.457H3430.42C3437.99 214.457 3444.73 218.929 3447.22 225.606L3507.16 385.819C3511.2 396.639 3502.61 407.957 3490.35 407.957H3449.28C3441.15 407.957 3434.06 402.807 3432.04 395.443L3428.81 383.648H3372.7L3369.65 395.274C3367.7 402.72 3360.56 407.957 3352.36 407.957H3311.95ZM3385.15 337.574H3416.07L3409.7 315.917C3406.51 304.548 3404.37 295.993 3403.39 290.146C3402.29 284.603 3401.61 278.995 3401.36 273.363H3399.85C3399.6 278.995 3398.92 284.603 3397.83 290.146C3396.55 297.293 3394.41 305.901 3391.52 315.917L3385.15 337.574Z" fill="black"/>
<path d="M3682.29 407.957C3673.34 407.957 3666.08 400.516 3666.08 391.337V322.588L3617.52 239.629C3611.04 228.551 3618.82 214.457 3631.43 214.457H3669.41C3675.87 214.457 3681.72 218.394 3684.29 224.475L3695.88 251.925C3697.81 256.713 3699.48 261.604 3700.89 266.576C3701.05 266.82 3701.16 267.096 3701.21 267.387C3701.19 267.567 3701.19 267.748 3701.21 267.928C3702.56 263.358 3704.14 258.864 3705.95 254.465C3706.24 253.925 3706.48 253.365 3706.69 252.789C3706.77 252.492 3706.88 252.202 3707.01 251.925L3718.37 224.568C3720.91 218.437 3726.79 214.457 3733.29 214.457H3770.18C3782.89 214.457 3790.65 228.764 3783.96 239.836L3733.91 322.588V391.337C3733.91 400.516 3726.65 407.957 3717.69 407.957H3682.29Z" fill="black"/>
<path fill-rule="evenodd" clip-rule="evenodd" d="M415.351 192.411C415.34 190.99 414.577 189.682 413.346 188.974L90.8162 3.44814C88.1496 1.91422 84.8218 3.83907 84.8218 6.91543V105.296V383.754C84.8218 385.194 85.5964 386.523 86.8497 387.234L166.596 432.423C169.263 433.934 172.568 432.008 172.568 428.943V160.098C172.568 157.059 175.824 155.13 178.49 156.59L328.433 238.702C329.715 239.404 330.512 240.749 330.512 242.21V524.148C330.512 525.589 331.287 526.918 332.54 527.628L412.234 572.788C414.912 574.306 418.229 572.356 418.206 569.278L415.351 192.411Z" fill="#800A64"/>
<path fill-rule="evenodd" clip-rule="evenodd" d="M336.344 245.085C336.355 243.65 335.597 242.32 334.357 241.598L6.01362 50.3017C3.34698 48.7481 0 50.6717 0 53.7579V152.094V430.552C0 431.992 0.77462 433.322 2.02795 434.032L81.7744 479.221C84.441 480.732 87.7465 478.806 87.7465 475.741V206.896C87.7465 203.857 91.0021 201.928 93.6677 203.388L243.611 285.5C244.893 286.202 245.69 287.547 245.69 289.008V570.946C245.69 572.387 246.465 573.716 247.718 574.426L327.517 619.646C330.172 621.15 333.466 619.247 333.489 616.196L336.344 245.085Z" fill="#B71392"/>
</svg>
